# xmcd
#
# Track frame offsets: 
#        150
#        24989
#        71743
#        114269
#        172277
#        193393
#        240233
#
# Disc length: 3807 seconds
#
# Revision: 3
# Processed by: cddbd v1.5.2PL0 Copyright (c) Steve Scherf et al.
# Submitted via: ExactAudioCopy v1.0b3
#
DISCID=5c0edd07
DTITLE=Tedeschi Trucks Band - Live - Everybody's Talkin' [Disc 1]
DYEAR=2012
DGENRE=Blues
TTITLE0=Everybody's Talkin'
TTITLE1=Tedeschi Trucks Band with Little Martha - Midnight In Harlem [
TTITLE1=Swamp Raga Intro...]
TTITLE2=Learn How To Love
TTITLE3=Bound For Glory
TTITLE4=Rollin' And Tumblin'
TTITLE5=Nobody's Free
TTITLE6=Darling Be Home Soon
EXTD=
EXTT0=
EXTT1=
EXTT2=
EXTT3=
EXTT4=
EXTT5=
EXTT6=
PLAYORDER=
